<svg aria-hidden="true" style="width:0;height:0;position:absolute;overflow:hidden" xmlns="http://www.w3.org/2000/svg"><defs><symbol id="close-icon" viewBox="0 0 34 32"><path d="M0 1.257 1.257 0l30.17 30.17-1.257 1.257L0 1.257z"/><path d="m30.906 0 1.257 1.257-30.17 30.17L.736 30.17 30.906 0z"/></symbol><symbol id="icon-phone" viewBox="0 0 32 32"><path fill="#fff" style="fill:var(--color1,#fff)" d="M21.424 20.102a1.502 1.502 0 0 0-2.084.064l-2.251 1.603c-.863-.165-2.597-.705-4.382-2.485-1.785-1.786-2.326-3.524-2.486-4.38l1.616-2.238a1.497 1.497 0 0 0 .064-2.082L8.434 3.157a1.497 1.497 0 0 0-2.083-.131l-3.25 2.786c-.259.26-.413.605-.434.971-.022.374.689 8.109 7.566 14.985 6 5.995 12.375 7.564 14.445 7.564.303 0 .488-.009.538-.012.366-.021.712-.176.971-.436l2.786-3.25a1.497 1.497 0 0 0-.129-2.082l-7.419-3.451z"/></symbol></defs></svg>