<svg width="1440" height="2560" fill="none" xmlns="http://www.w3.org/2000/svg"><path d="M411.5 76c0 84.804-29.619 168.081-72.269 230.152C296.563 368.249 240.944 409 189 409c-51.952 0-99.066-34.263-133.217-89.826C21.636 263.618.5 186.837.5 102 .5 42.788 10.797-15.736 28.633-66.835c16.638-47.664 39.828-88.847 67.32-118.106C123.445-214.199 155.205-231.5 189-231.5c51.977 0 107.597 34.416 150.246 90.119C381.884-85.693 411.5-8.799 411.5 76Z" stroke="#CEE9CB" stroke-opacity=".8"/><path d="M411.5 76c0 84.804-29.619 168.081-72.269 230.152C296.563 368.249 240.944 409 189 409c-51.952 0-99.066-34.263-133.217-89.826C21.636 263.618.5 186.837.5 102 .5 42.788 10.797-15.736 28.633-66.835c16.638-47.664 39.828-88.847 67.32-118.106C123.445-214.199 155.205-231.5 189-231.5c51.977 0 107.597 34.416 150.246 90.119C381.884-85.693 411.5-8.799 411.5 76Z" stroke="#CEE9CB" stroke-opacity=".8"/><path d="M411.5 76c0 84.804-29.619 168.081-72.269 230.152C296.563 368.249 240.944 409 189 409c-51.952 0-99.066-34.263-133.217-89.826C21.636 263.618.5 186.837.5 102 .5 42.788 10.797-15.736 28.633-66.835c16.638-47.664 39.828-88.847 67.32-118.106C123.445-214.199 155.205-231.5 189-231.5c51.977 0 107.597 34.416 150.246 90.119C381.884-85.693 411.5-8.799 411.5 76Z" stroke="#CEE9CB" stroke-opacity=".8"/><path d="M694.5 293.242c0 22.333-11.038 44.516-30.116 65.253-19.075 20.734-46.156 39.984-78.148 56.435-63.985 32.903-147.532 54.57-225.736 54.57-78.215 0-149.001-18.226-200.216-47.668-51.228-29.45-82.784-70.06-82.784-114.809 0-31.243 15.376-62.172 42.098-89.22C169.447 167.341 258.676 130.5 360.5 130.5c78.218 0 161.771 18.294 225.755 47.821 31.993 14.764 59.069 32.326 78.14 51.792 19.072 19.466 30.105 40.801 30.105 63.129Z" stroke="#CEE9CB" stroke-opacity=".8"/><path d="M694.5 293.242c0 22.333-11.038 44.516-30.116 65.253-19.075 20.734-46.156 39.984-78.148 56.435-63.985 32.903-147.532 54.57-225.736 54.57-78.215 0-149.001-18.226-200.216-47.668-51.228-29.45-82.784-70.06-82.784-114.809 0-31.243 15.376-62.172 42.098-89.22C169.447 167.341 258.676 130.5 360.5 130.5c78.218 0 161.771 18.294 225.755 47.821 31.993 14.764 59.069 32.326 78.14 51.792 19.072 19.466 30.105 40.801 30.105 63.129Z" stroke="#CEE9CB" stroke-opacity=".8"/><path d="M694.5 293.242c0 22.333-11.038 44.516-30.116 65.253-19.075 20.734-46.156 39.984-78.148 56.435-63.985 32.903-147.532 54.57-225.736 54.57-78.215 0-149.001-18.226-200.216-47.668-51.228-29.45-82.784-70.06-82.784-114.809 0-31.243 15.376-62.172 42.098-89.22C169.447 167.341 258.676 130.5 360.5 130.5c78.218 0 161.771 18.294 225.755 47.821 31.993 14.764 59.069 32.326 78.14 51.792 19.072 19.466 30.105 40.801 30.105 63.129ZM1021.76 902.456c-18.02-82.866-6.78-170.536 21.7-240.254 28.5-69.747 74.19-121.387 124.94-132.427 50.77-11.041 104.09 12.425 149.27 59.461 45.17 47.03 82.15 117.565 100.18 200.463 12.58 57.859 14.96 117.234 8.39 170.957-6.13 50.114-20.04 95.284-40.68 129.714-20.65 34.43-48 58.09-81.03 65.27-50.79 11.05-112.45-10.76-165.96-56.13-53.5-45.35-98.79-114.192-116.81-197.054Z" stroke="#CEE9CB" stroke-opacity=".8"/><path d="M1021.76 902.456c-18.02-82.866-6.78-170.536 21.7-240.254 28.5-69.747 74.19-121.387 124.94-132.427 50.77-11.041 104.09 12.425 149.27 59.461 45.17 47.03 82.15 117.565 100.18 200.463 12.58 57.859 14.96 117.234 8.39 170.957-6.13 50.114-20.04 95.284-40.68 129.714-20.65 34.43-48 58.09-81.03 65.27-50.79 11.05-112.45-10.76-165.96-56.13-53.5-45.35-98.79-114.192-116.81-197.054Z" stroke="#CEE9CB" stroke-opacity=".8"/><path d="M1021.76 902.456c-18.02-82.866-6.78-170.536 21.7-240.254 28.5-69.747 74.19-121.387 124.94-132.427 50.77-11.041 104.09 12.425 149.27 59.461 45.17 47.03 82.15 117.565 100.18 200.463 12.58 57.859 14.96 117.234 8.39 170.957-6.13 50.114-20.04 95.284-40.68 129.714-20.65 34.43-48 58.09-81.03 65.27-50.79 11.05-112.45-10.76-165.96-56.13-53.5-45.35-98.79-114.192-116.81-197.054Z" stroke="#CEE9CB" stroke-opacity=".8"/><path d="M699.056 750.323c-4.747-21.822 1.324-45.845 15.559-70.162 14.233-24.315 36.604-48.88 64.369-71.755 55.53-45.751 132.563-84.679 208.981-101.299 76.425-16.624 149.475-13.858 205.775 4.027 56.31 17.889 95.78 50.864 105.29 94.591 6.64 30.53-1.81 64.019-22.17 96.129-37.99 59.903-117.35 114.867-216.85 136.508-76.428 16.624-161.96 16.505-230.758 1.251-34.399-7.627-64.59-19.033-87.362-34.001-22.773-14.968-38.089-33.471-42.834-55.289Z" stroke="#CEE9CB" stroke-opacity=".8"/><path d="M699.056 750.323c-4.747-21.822 1.324-45.845 15.559-70.162 14.233-24.315 36.604-48.88 64.369-71.755 55.53-45.751 132.563-84.679 208.981-101.299 76.425-16.624 149.475-13.858 205.775 4.027 56.31 17.889 95.78 50.864 105.29 94.591 6.64 30.53-1.81 64.019-22.17 96.129-37.99 59.903-117.35 114.867-216.85 136.508-76.428 16.624-161.96 16.505-230.758 1.251-34.399-7.627-64.59-19.033-87.362-34.001-22.773-14.968-38.089-33.471-42.834-55.289Z" stroke="#CEE9CB" stroke-opacity=".8"/><path d="M699.056 750.323c-4.747-21.822 1.324-45.845 15.559-70.162 14.233-24.315 36.604-48.88 64.369-71.755 55.53-45.751 132.563-84.679 208.981-101.299 76.425-16.624 149.475-13.858 205.775 4.027 56.31 17.889 95.78 50.864 105.29 94.591 6.64 30.53-1.81 64.019-22.17 96.129-37.99 59.903-117.35 114.867-216.85 136.508-76.428 16.624-161.96 16.505-230.758 1.251-34.399-7.627-64.59-19.033-87.362-34.001-22.773-14.968-38.089-33.471-42.834-55.289ZM294.5 1574c0 84.8-29.619 168.08-72.269 230.15C179.563 1866.25 123.944 1907 72 1907c-51.952 0-99.066-34.26-133.217-89.83-34.147-55.55-55.283-132.33-55.283-217.17 0-59.21 10.297-117.74 28.133-168.84 16.638-47.66 39.828-88.84 67.32-118.1C6.445 1283.8 38.205 1266.5 72 1266.5c51.977 0 107.597 34.42 150.246 90.12C264.884 1412.31 294.5 1489.2 294.5 1574Z" stroke="#CEE9CB" stroke-opacity=".8"/><path d="M294.5 1574c0 84.8-29.619 168.08-72.269 230.15C179.563 1866.25 123.944 1907 72 1907c-51.952 0-99.066-34.26-133.217-89.83-34.147-55.55-55.283-132.33-55.283-217.17 0-59.21 10.297-117.74 28.133-168.84 16.638-47.66 39.828-88.84 67.32-118.1C6.445 1283.8 38.205 1266.5 72 1266.5c51.977 0 107.597 34.42 150.246 90.12C264.884 1412.31 294.5 1489.2 294.5 1574Z" stroke="#CEE9CB" stroke-opacity=".8"/><path d="M294.5 1574c0 84.8-29.619 168.08-72.269 230.15C179.563 1866.25 123.944 1907 72 1907c-51.952 0-99.066-34.26-133.217-89.83-34.147-55.55-55.283-132.33-55.283-217.17 0-59.21 10.297-117.74 28.133-168.84 16.638-47.66 39.828-88.84 67.32-118.1C6.445 1283.8 38.205 1266.5 72 1266.5c51.977 0 107.597 34.42 150.246 90.12C264.884 1412.31 294.5 1489.2 294.5 1574Z" stroke="#CEE9CB" stroke-opacity=".8"/><path d="M577.5 1791.24c0 22.34-11.038 44.52-30.116 65.26-19.075 20.73-46.156 39.98-78.148 56.43-63.985 32.9-147.532 54.57-225.736 54.57-78.215 0-149-18.23-200.216-47.67-51.228-29.45-82.784-70.06-82.784-114.81 0-31.24 15.377-62.17 42.098-89.22 49.85-50.46 139.078-87.3 240.902-87.3 78.218 0 161.771 18.29 225.755 47.82 31.993 14.77 59.069 32.33 78.14 51.79 19.072 19.47 30.105 40.8 30.105 63.13Z" stroke="#CEE9CB" stroke-opacity=".8"/><path d="M577.5 1791.24c0 22.34-11.038 44.52-30.116 65.26-19.075 20.73-46.156 39.98-78.148 56.43-63.985 32.9-147.532 54.57-225.736 54.57-78.215 0-149-18.23-200.216-47.67-51.228-29.45-82.784-70.06-82.784-114.81 0-31.24 15.377-62.17 42.098-89.22 49.85-50.46 139.078-87.3 240.902-87.3 78.218 0 161.771 18.29 225.755 47.82 31.993 14.77 59.069 32.33 78.14 51.79 19.072 19.47 30.105 40.8 30.105 63.13Z" stroke="#CEE9CB" stroke-opacity=".8"/><path d="M577.5 1791.24c0 22.34-11.038 44.52-30.116 65.26-19.075 20.73-46.156 39.98-78.148 56.43-63.985 32.9-147.532 54.57-225.736 54.57-78.215 0-149-18.23-200.216-47.67-51.228-29.45-82.784-70.06-82.784-114.81 0-31.24 15.377-62.17 42.098-89.22 49.85-50.46 139.078-87.3 240.902-87.3 78.218 0 161.771 18.29 225.755 47.82 31.993 14.77 59.069 32.33 78.14 51.79 19.072 19.47 30.105 40.8 30.105 63.13ZM1103.76 2343.46c-18.02-82.87-6.78-170.54 21.7-240.26 28.5-69.74 74.19-121.39 124.94-132.42 50.77-11.05 104.09 12.42 149.27 59.46 45.17 47.03 82.15 117.56 100.18 200.46 12.58 57.86 14.96 117.23 8.39 170.96-6.13 50.11-20.04 95.28-40.68 129.71-20.65 34.43-48 58.09-81.03 65.27-50.79 11.05-112.45-10.76-165.96-56.13-53.5-45.35-98.79-114.19-116.81-197.05Z" stroke="#CEE9CB" stroke-opacity=".8"/><path d="M1103.76 2343.46c-18.02-82.87-6.78-170.54 21.7-240.26 28.5-69.74 74.19-121.39 124.94-132.42 50.77-11.05 104.09 12.42 149.27 59.46 45.17 47.03 82.15 117.56 100.18 200.46 12.58 57.86 14.96 117.23 8.39 170.96-6.13 50.11-20.04 95.28-40.68 129.71-20.65 34.43-48 58.09-81.03 65.27-50.79 11.05-112.45-10.76-165.96-56.13-53.5-45.35-98.79-114.19-116.81-197.05Z" stroke="#CEE9CB" stroke-opacity=".8"/><path d="M1103.76 2343.46c-18.02-82.87-6.78-170.54 21.7-240.26 28.5-69.74 74.19-121.39 124.94-132.42 50.77-11.05 104.09 12.42 149.27 59.46 45.17 47.03 82.15 117.56 100.18 200.46 12.58 57.86 14.96 117.23 8.39 170.96-6.13 50.11-20.04 95.28-40.68 129.71-20.65 34.43-48 58.09-81.03 65.27-50.79 11.05-112.45-10.76-165.96-56.13-53.5-45.35-98.79-114.19-116.81-197.05Z" stroke="#CEE9CB" stroke-opacity=".8"/><path d="M781.056 2191.32c-4.747-21.82 1.324-45.84 15.559-70.16 14.233-24.31 36.604-48.88 64.369-71.75 55.53-45.75 132.563-84.68 208.976-101.3 76.43-16.63 149.48-13.86 205.78 4.02 56.31 17.89 95.78 50.87 105.29 94.6 6.64 30.52-1.81 64.01-22.17 96.12-37.99 59.91-117.35 114.87-216.85 136.51-76.43 16.63-161.96 16.51-230.758 1.25-34.399-7.62-64.59-19.03-87.362-34-22.773-14.97-38.089-33.47-42.834-55.29Z" stroke="#CEE9CB" stroke-opacity=".8"/><path d="M781.056 2191.32c-4.747-21.82 1.324-45.84 15.559-70.16 14.233-24.31 36.604-48.88 64.369-71.75 55.53-45.75 132.563-84.68 208.976-101.3 76.43-16.63 149.48-13.86 205.78 4.02 56.31 17.89 95.78 50.87 105.29 94.6 6.64 30.52-1.81 64.01-22.17 96.12-37.99 59.91-117.35 114.87-216.85 136.51-76.43 16.63-161.96 16.51-230.758 1.25-34.399-7.62-64.59-19.03-87.362-34-22.773-14.97-38.089-33.47-42.834-55.29Z" stroke="#CEE9CB" stroke-opacity=".8"/><path d="M781.056 2191.32c-4.747-21.82 1.324-45.84 15.559-70.16 14.233-24.31 36.604-48.88 64.369-71.75 55.53-45.75 132.563-84.68 208.976-101.3 76.43-16.63 149.48-13.86 205.78 4.02 56.31 17.89 95.78 50.87 105.29 94.6 6.64 30.52-1.81 64.01-22.17 96.12-37.99 59.91-117.35 114.87-216.85 136.51-76.43 16.63-161.96 16.51-230.758 1.25-34.399-7.62-64.59-19.03-87.362-34-22.773-14.97-38.089-33.47-42.834-55.29Z" stroke="#CEE9CB" stroke-opacity=".8"/><g opacity=".33" fill="#6BBC60"><circle cx="1255.31" cy="512.313" r="14.422"/><circle cx="1232.88" cy="570" r="14.422"/><circle cx="1255.31" cy="627.687" r="14.422"/><circle cx="1313" cy="653.325" r="14.422"/><circle cx="1268.13" cy="675.759" r="8.012"/><circle cx="1268.13" cy="467.446" r="8.012"/><circle cx="1418.76" cy="618.072" r="8.012"/><circle cx="1210.45" cy="618.072" r="8.012"/><circle cx="1418.76" cy="525.133" r="8.012"/><circle cx="1210.45" cy="525.133" r="8.012"/><circle cx="1220.06" cy="480.265" r="4.807"/><circle cx="1405.94" cy="480.265" r="4.807"/><circle cx="1184.81" cy="570" r="4.807"/><circle cx="1441.19" cy="570" r="4.807"/><circle cx="1220.06" cy="662.94" r="4.807"/><circle cx="1313" cy="701.398" r="4.807"/><circle cx="1313" cy="441.807" r="4.807"/><circle cx="1405.94" cy="662.94" r="4.807"/><circle cx="1361.07" cy="675.759" r="8.012"/><circle cx="1361.07" cy="467.446" r="8.012"/><circle cx="1313" cy="489.88" r="14.422"/><circle cx="1370.69" cy="512.313" r="14.422"/><circle cx="1393.12" cy="570" r="14.422"/><circle cx="1370.69" cy="627.687" r="14.422"/></g><g opacity=".33" fill="#6BBC60"><circle cx="99.312" cy="276.313" r="14.422"/><circle cx="76.879" cy="334" r="14.422"/><circle cx="99.312" cy="391.687" r="14.422"/><circle cx="157" cy="417.325" r="14.422"/><circle cx="112.133" cy="439.759" r="8.012"/><circle cx="112.133" cy="231.446" r="8.012"/><circle cx="262.758" cy="382.072" r="8.012"/><circle cx="54.446" cy="382.072" r="8.012"/><circle cx="262.758" cy="289.133" r="8.012"/><circle cx="54.446" cy="289.133" r="8.012"/><circle cx="64.061" cy="244.265" r="4.807"/><circle cx="249.94" cy="244.265" r="4.807"/><circle cx="28.807" cy="334" r="4.807"/><circle cx="285.192" cy="334" r="4.807"/><circle cx="64.061" cy="426.94" r="4.807"/><circle cx="157.001" cy="465.398" r="4.807"/><circle cx="157.001" cy="205.807" r="4.807"/><circle cx="249.94" cy="426.94" r="4.807"/><circle cx="205.073" cy="439.759" r="8.012"/><circle cx="205.073" cy="231.446" r="8.012"/><circle cx="157" cy="253.88" r="14.422"/><circle cx="214.687" cy="276.313" r="14.422"/><circle cx="237.121" cy="334" r="14.422"/><circle cx="214.687" cy="391.687" r="14.422"/></g><g opacity=".33" fill="#6BBC60"><circle cx="125.312" cy="1352.86" r="14.422"/><circle cx="102.879" cy="1410.54" r="14.422"/><circle cx="125.312" cy="1468.23" r="14.422"/><circle cx="183" cy="1493.87" r="14.422"/><circle cx="138.133" cy="1516.3" r="8.012"/><circle cx="138.133" cy="1307.99" r="8.012"/><circle cx="288.758" cy="1458.61" r="8.012"/><circle cx="80.446" cy="1458.61" r="8.012"/><circle cx="288.758" cy="1365.67" r="8.012"/><circle cx="80.446" cy="1365.67" r="8.012"/><circle cx="90.061" cy="1320.81" r="4.807"/><circle cx="275.94" cy="1320.81" r="4.807"/><circle cx="54.807" cy="1410.54" r="4.807"/><circle cx="311.192" cy="1410.54" r="4.807"/><circle cx="90.061" cy="1503.48" r="4.807"/><circle cx="183.001" cy="1541.94" r="4.807"/><circle cx="183.001" cy="1282.35" r="4.807"/><circle cx="275.94" cy="1503.48" r="4.807"/><circle cx="231.073" cy="1516.3" r="8.012"/><circle cx="231.073" cy="1307.99" r="8.012"/><circle cx="183" cy="1330.42" r="14.422"/><circle cx="240.687" cy="1352.86" r="14.422"/><circle cx="263.121" cy="1410.54" r="14.422"/><circle cx="240.687" cy="1468.23" r="14.422"/></g><g opacity=".33" fill="#6BBC60"><circle cx="1202.31" cy="1892.31" r="14.422"/><circle cx="1179.88" cy="1950" r="14.422"/><circle cx="1202.31" cy="2007.69" r="14.422"/><circle cx="1260" cy="2033.33" r="14.422"/><circle cx="1215.13" cy="2055.76" r="8.012"/><circle cx="1215.13" cy="1847.45" r="8.012"/><circle cx="1365.76" cy="1998.07" r="8.012"/><circle cx="1157.45" cy="1998.07" r="8.012"/><circle cx="1365.76" cy="1905.13" r="8.012"/><circle cx="1157.45" cy="1905.13" r="8.012"/><circle cx="1167.06" cy="1860.27" r="4.807"/><circle cx="1352.94" cy="1860.27" r="4.807"/><circle cx="1131.81" cy="1950" r="4.807"/><circle cx="1388.19" cy="1950" r="4.807"/><circle cx="1167.06" cy="2042.94" r="4.807"/><circle cx="1260" cy="2081.4" r="4.807"/><circle cx="1260" cy="1821.81" r="4.807"/><circle cx="1352.94" cy="2042.94" r="4.807"/><circle cx="1308.07" cy="2055.76" r="8.012"/><circle cx="1308.07" cy="1847.45" r="8.012"/><circle cx="1260" cy="1869.88" r="14.422"/><circle cx="1317.69" cy="1892.31" r="14.422"/><circle cx="1340.12" cy="1950" r="14.422"/><circle cx="1317.69" cy="2007.69" r="14.422"/></g><g opacity=".33" fill="#6BBC60"><circle cx="199.133" cy="2530.9" r="8.012"/><circle cx="151.061" cy="2543.72" r="4.807"/><circle cx="336.94" cy="2543.72" r="4.807"/><circle cx="244.001" cy="2505.27" r="4.807"/><circle cx="292.073" cy="2530.9" r="8.012"/><circle cx="244" cy="2553.34" r="14.422"/></g></svg>