<svg width="32" height="24" fill="none" xmlns="http://www.w3.org/2000/svg"><path d="m10.646 14.901.005-.002A13.17 13.17 0 0 1 16 13.75c2.052 0 3.869.49 5.351 1.136a3.23 3.23 0 0 1 1.899 2.954v.827c0 .319-.264.583-.583.583H9.333a.587.587 0 0 1-.583-.583v-.814c0-1.287.741-2.45 1.896-2.952ZM1.92 16.13l.005-.002a8.517 8.517 0 0 1 3.78-.701 6.69 6.69 0 0 0-.456 2.426v1.397H1.333a.587.587 0 0 1-.583-.583v-.761a1.93 1.93 0 0 1 1.171-1.776Zm28.152-.003.003.001a1.931 1.931 0 0 1 1.174 1.779v.76c0 .319-.264.583-.583.583H26.75v-1.397c0-.853-.162-1.67-.455-2.427a8.516 8.516 0 0 1 3.779.7ZM7.25 10.667a1.924 1.924 0 0 1-1.917 1.916 1.924 1.924 0 0 1-1.916-1.916c0-1.053.864-1.917 1.916-1.917 1.053 0 1.917.864 1.917 1.917Zm21.333 0a1.924 1.924 0 0 1-1.916 1.916 1.924 1.924 0 0 1-1.917-1.916c0-1.053.864-1.917 1.917-1.917 1.052 0 1.916.864 1.916 1.917ZM16 4.75c1.8 0 3.25 1.45 3.25 3.25S17.8 11.25 16 11.25 12.75 9.8 12.75 8 14.2 4.75 16 4.75Z" stroke="#6BBC60" stroke-width="1.5"/></svg>