<svg aria-hidden="true" style="width:0;height:0;position:absolute;overflow:hidden" xmlns="http://www.w3.org/2000/svg"><defs><symbol id="left-arr" viewBox="0 0 31 32"><path fill="#fff" style="fill:var(--color1,#fff);stroke:var(--color2,#6bbc60)" stroke="#6bbc60" stroke-width="1.561" d="M.78 15.967c0-8.19 6.639-14.829 14.829-14.829s14.829 6.639 14.829 14.829c0 8.19-6.639 14.829-14.829 14.829S.78 24.157.78 15.967z"/><path fill="#6bbc60" style="fill:var(--color2,#6bbc60)" d="m8.562 15.967 3.902 2.253v-4.506l-3.902 2.253zm13.292-.39h-9.779v.781h9.779v-.78z"/></symbol><symbol id="right-arr" viewBox="0 0 31 32"><path fill="#fff" style="fill:var(--color1,#fff);stroke:var(--color2,#6bbc60)" stroke="#6bbc60" stroke-width="1.561" d="M30.439 15.967c0 8.19-6.639 14.829-14.829 14.829S.781 24.157.781 15.967c0-8.19 6.639-14.829 14.829-14.829s14.829 6.639 14.829 14.829z"/><path fill="#6bbc60" style="fill:var(--color2,#6bbc60)" d="m22.657 15.967-3.902-2.253v4.506l3.902-2.253zm-13.291.39h9.779v-.78H9.366v.78z"/></symbol></defs></svg>