<svg width="21" height="22" fill="none" xmlns="http://www.w3.org/2000/svg"><path d="M12.13 1.253C9.604-.64 5.987 1.021 5.777 4.168L5.673 5.75H4.625a1.125 1.125 0 1 0 0 2.25h.897l-.63 9.44a1.875 1.875 0 0 1-2.511 1.637l-.37-.135a1.125 1.125 0 0 0-.77 2.116l.372.134a4.125 4.125 0 0 0 5.524-3.602L7.777 8h2.098a1.125 1.125 0 0 0 0-2.25H7.928l.094-1.432a1.725 1.725 0 0 1 2.757-1.265l.296.222a1.124 1.124 0 1 0 1.35-1.8l-.296-.222Z" fill="#fff"/><path d="M13.453 10.498a2.25 2.25 0 0 0-3.507-.412l-.492.492a1.125 1.125 0 0 0 1.59 1.59l.494-.491 1.788 2.905-3.497 3.498a1.125 1.125 0 0 0 1.59 1.59l3.119-3.117 1.507 2.45a2.25 2.25 0 0 0 3.507.41l.492-.491a1.125 1.125 0 0 0-1.59-1.59l-.493.491-1.788-2.905 3.496-3.498a1.125 1.125 0 0 0-1.59-1.59l-3.12 3.115-1.506-2.447Z" fill="#fff"/></svg>