<svg aria-hidden="true" style="width:0;height:0;position:absolute;overflow:hidden" xmlns="http://www.w3.org/2000/svg"><defs><symbol id="icon-phone" viewBox="0 0 30 32"><path d="M21.175 20.633a1.692 1.692 0 0 0-2.352.073l-2.541 1.81c-.974-.186-2.932-.796-4.947-2.806-2.015-2.017-2.626-3.98-2.807-4.947l1.824-2.528a1.694 1.694 0 0 0 .073-2.352L6.511 1.495a1.693 1.693 0 0 0-2.352-.147L.49 4.494A1.689 1.689 0 0 0 0 5.591c-.025.423.778 9.158 8.541 16.925 6.773 6.771 13.971 8.543 16.307 8.543.342 0 .551-.01.607-.014a1.677 1.677 0 0 0 1.096-.492l3.145-3.67a1.691 1.691 0 0 0-.146-2.351l-8.376-3.898z"/></symbol></defs></svg>