<svg width="32" height="24" fill="none" xmlns="http://www.w3.org/2000/svg"><path d="M14.8 18.18v-1.32a6.472 6.472 0 0 1-1.5-.288 3.928 3.928 0 0 1-1.212-.66l.468-1.212c.376.28.788.496 1.236.648.448.152.94.228 1.476.228.584 0 1.012-.104 1.284-.312.272-.208.408-.468.408-.78 0-.28-.092-.504-.276-.672-.184-.168-.512-.304-.984-.408l-1.272-.276c-.72-.16-1.264-.424-1.632-.792-.36-.376-.54-.872-.54-1.488 0-.672.228-1.236.684-1.692.464-.464 1.084-.744 1.86-.84V6.96H16v1.344c.416.04.82.14 1.212.3.392.16.724.376.996.648l-.456 1.152c-.608-.56-1.384-.84-2.328-.84-.496 0-.896.116-1.2.348a1.06 1.06 0 0 0-.444.888c0 .272.092.492.276.66.184.168.48.296.888.384l1.272.276c.768.168 1.336.436 1.704.804.376.36.564.84.564 1.44 0 .672-.232 1.224-.696 1.656-.456.424-1.052.692-1.788.804v1.356h-1.2Z" fill="#6BBC60"/><path d="M26.29 12c0 6.242-4.85 11.25-10.77 11.25S4.75 18.242 4.75 12 9.6.75 15.52.75 26.29 5.758 26.29 12Z" stroke="#6BBC60" stroke-width="1.5"/></svg>