<svg width="32" height="24" fill="none" xmlns="http://www.w3.org/2000/svg"><path d="M12.85 0a.876.876 0 0 0-.6.236.783.783 0 0 0-.25.569v18.39c0 .214.09.418.25.57.159.15.375.235.6.235a.876.876 0 0 0 .602-.236c.16-.15.249-.355.249-.569v-7.39a1 1 0 0 1 1-1h9.448a.876.876 0 0 0 .602-.236c.16-.151.249-.356.249-.569V.805a.783.783 0 0 0-.25-.57.876.876 0 0 0-.6-.235h-11.3Zm.972 2.61a1 1 0 0 1 1-1H22.3a1 1 0 0 1 1 1v5.585a1 1 0 0 1-1 1h-7.477a1 1 0 0 1-1-1V2.61Z" fill="#6BBC60"/><path d="M10.2 18C7.73 18.387 6 19.313 6 20.676 6 22.512 8.889 24 13 24c4.111 0 7-1.488 7-3.324 0-1.363-1.729-2.289-4.2-2.676l-.343.646c1.863.287 3.143.889 3.143 1.587 0 .979-2.507 1.773-5.6 1.773-3.093 0-5.6-.794-5.6-1.773 0-.696 1.272-1.297 3.14-1.585-.112-.216-.226-.432-.34-.648Z" fill="#6BBC60"/></svg>