<svg width="1440" height="2560" viewBox="0 0 1440 2560" fill="none" xmlns="http://www.w3.org/2000/svg">
<path d="M411.5 76C411.5 160.804 381.881 244.081 339.231 306.152C296.563 368.249 240.944 409 189 409C137.048 409 89.9343 374.737 55.7828 319.174C21.6363 263.618 0.5 186.837 0.5 102C0.5 42.7878 10.7966 -15.7357 28.6333 -66.8352C45.2708 -114.499 68.4609 -155.682 95.9527 -184.941C123.445 -214.199 155.205 -231.5 189 -231.5C240.977 -231.5 296.597 -197.084 339.246 -141.381C381.884 -85.6934 411.5 -8.79933 411.5 76Z" stroke="#CEE9CB" stroke-opacity="0.8"/>
<path d="M411.5 76C411.5 160.804 381.881 244.081 339.231 306.152C296.563 368.249 240.944 409 189 409C137.048 409 89.9343 374.737 55.7828 319.174C21.6363 263.618 0.5 186.837 0.5 102C0.5 42.7878 10.7966 -15.7357 28.6333 -66.8352C45.2708 -114.499 68.4609 -155.682 95.9527 -184.941C123.445 -214.199 155.205 -231.5 189 -231.5C240.977 -231.5 296.597 -197.084 339.246 -141.381C381.884 -85.6934 411.5 -8.79933 411.5 76Z" stroke="#CEE9CB" stroke-opacity="0.8"/>
<path d="M411.5 76C411.5 160.804 381.881 244.081 339.231 306.152C296.563 368.249 240.944 409 189 409C137.048 409 89.9343 374.737 55.7828 319.174C21.6363 263.618 0.5 186.837 0.5 102C0.5 42.7878 10.7966 -15.7357 28.6333 -66.8352C45.2708 -114.499 68.4609 -155.682 95.9527 -184.941C123.445 -214.199 155.205 -231.5 189 -231.5C240.977 -231.5 296.597 -197.084 339.246 -141.381C381.884 -85.6934 411.5 -8.79933 411.5 76Z" stroke="#CEE9CB" stroke-opacity="0.8"/>
<path d="M694.5 293.242C694.5 315.575 683.462 337.758 664.384 358.495C645.309 379.229 618.228 398.479 586.236 414.93C522.251 447.833 438.704 469.5 360.5 469.5C282.285 469.5 211.499 451.274 160.284 421.832C109.056 392.382 77.5 351.772 77.5 307.023C77.5 275.78 92.8765 244.851 119.598 217.803C169.447 167.341 258.676 130.5 360.5 130.5C438.718 130.5 522.271 148.794 586.255 178.321C618.248 193.085 645.324 210.647 664.395 230.113C683.467 249.579 694.5 270.914 694.5 293.242Z" stroke="#CEE9CB" stroke-opacity="0.8"/>
<path d="M694.5 293.242C694.5 315.575 683.462 337.758 664.384 358.495C645.309 379.229 618.228 398.479 586.236 414.93C522.251 447.833 438.704 469.5 360.5 469.5C282.285 469.5 211.499 451.274 160.284 421.832C109.056 392.382 77.5 351.772 77.5 307.023C77.5 275.78 92.8765 244.851 119.598 217.803C169.447 167.341 258.676 130.5 360.5 130.5C438.718 130.5 522.271 148.794 586.255 178.321C618.248 193.085 645.324 210.647 664.395 230.113C683.467 249.579 694.5 270.914 694.5 293.242Z" stroke="#CEE9CB" stroke-opacity="0.8"/>
<path d="M694.5 293.242C694.5 315.575 683.462 337.758 664.384 358.495C645.309 379.229 618.228 398.479 586.236 414.93C522.251 447.833 438.704 469.5 360.5 469.5C282.285 469.5 211.499 451.274 160.284 421.832C109.056 392.382 77.5 351.772 77.5 307.023C77.5 275.78 92.8765 244.851 119.598 217.803C169.447 167.341 258.676 130.5 360.5 130.5C438.718 130.5 522.271 148.794 586.255 178.321C618.248 193.085 645.324 210.647 664.395 230.113C683.467 249.579 694.5 270.914 694.5 293.242Z" stroke="#CEE9CB" stroke-opacity="0.8"/>
<path d="M1021.76 902.456C1003.74 819.59 1014.98 731.92 1043.46 662.202C1071.96 592.455 1117.65 540.815 1168.4 529.775C1219.17 518.734 1272.49 542.2 1317.67 589.236C1362.84 636.266 1399.82 706.801 1417.85 789.699C1430.43 847.558 1432.81 906.933 1426.24 960.656C1420.11 1010.77 1406.2 1055.94 1385.56 1090.37C1364.91 1124.8 1337.56 1148.46 1304.53 1155.64C1253.74 1166.69 1192.08 1144.88 1138.57 1099.51C1085.07 1054.16 1039.78 985.318 1021.76 902.456Z" stroke="#CEE9CB" stroke-opacity="0.8"/>
<path d="M1021.76 902.456C1003.74 819.59 1014.98 731.92 1043.46 662.202C1071.96 592.455 1117.65 540.815 1168.4 529.775C1219.17 518.734 1272.49 542.2 1317.67 589.236C1362.84 636.266 1399.82 706.801 1417.85 789.699C1430.43 847.558 1432.81 906.933 1426.24 960.656C1420.11 1010.77 1406.2 1055.94 1385.56 1090.37C1364.91 1124.8 1337.56 1148.46 1304.53 1155.64C1253.74 1166.69 1192.08 1144.88 1138.57 1099.51C1085.07 1054.16 1039.78 985.318 1021.76 902.456Z" stroke="#CEE9CB" stroke-opacity="0.8"/>
<path d="M1021.76 902.456C1003.74 819.59 1014.98 731.92 1043.46 662.202C1071.96 592.455 1117.65 540.815 1168.4 529.775C1219.17 518.734 1272.49 542.2 1317.67 589.236C1362.84 636.266 1399.82 706.801 1417.85 789.699C1430.43 847.558 1432.81 906.933 1426.24 960.656C1420.11 1010.77 1406.2 1055.94 1385.56 1090.37C1364.91 1124.8 1337.56 1148.46 1304.53 1155.64C1253.74 1166.69 1192.08 1144.88 1138.57 1099.51C1085.07 1054.16 1039.78 985.318 1021.76 902.456Z" stroke="#CEE9CB" stroke-opacity="0.8"/>
<path d="M699.056 750.323C694.309 728.501 700.38 704.478 714.615 680.161C728.848 655.846 751.219 631.281 778.984 608.406C834.514 562.655 911.547 523.727 987.965 507.107C1064.39 490.483 1137.44 493.249 1193.74 511.134C1250.05 529.023 1289.52 561.998 1299.03 605.725C1305.67 636.255 1297.22 669.744 1276.86 701.854C1238.87 761.757 1159.51 816.721 1060.01 838.362C983.582 854.986 898.05 854.867 829.252 839.613C794.853 831.986 764.662 820.58 741.89 805.612C719.117 790.644 703.801 772.141 699.056 750.323Z" stroke="#CEE9CB" stroke-opacity="0.8"/>
<path d="M699.056 750.323C694.309 728.501 700.38 704.478 714.615 680.161C728.848 655.846 751.219 631.281 778.984 608.406C834.514 562.655 911.547 523.727 987.965 507.107C1064.39 490.483 1137.44 493.249 1193.74 511.134C1250.05 529.023 1289.52 561.998 1299.03 605.725C1305.67 636.255 1297.22 669.744 1276.86 701.854C1238.87 761.757 1159.51 816.721 1060.01 838.362C983.582 854.986 898.05 854.867 829.252 839.613C794.853 831.986 764.662 820.58 741.89 805.612C719.117 790.644 703.801 772.141 699.056 750.323Z" stroke="#CEE9CB" stroke-opacity="0.8"/>
<path d="M699.056 750.323C694.309 728.501 700.38 704.478 714.615 680.161C728.848 655.846 751.219 631.281 778.984 608.406C834.514 562.655 911.547 523.727 987.965 507.107C1064.39 490.483 1137.44 493.249 1193.74 511.134C1250.05 529.023 1289.52 561.998 1299.03 605.725C1305.67 636.255 1297.22 669.744 1276.86 701.854C1238.87 761.757 1159.51 816.721 1060.01 838.362C983.582 854.986 898.05 854.867 829.252 839.613C794.853 831.986 764.662 820.58 741.89 805.612C719.117 790.644 703.801 772.141 699.056 750.323Z" stroke="#CEE9CB" stroke-opacity="0.8"/>
<path d="M294.5 1574C294.5 1658.8 264.881 1742.08 222.231 1804.15C179.563 1866.25 123.944 1907 72 1907C20.0478 1907 -27.0657 1872.74 -61.2172 1817.17C-95.3637 1761.62 -116.5 1684.84 -116.5 1600C-116.5 1540.79 -106.203 1482.26 -88.3667 1431.16C-71.7292 1383.5 -48.5391 1342.32 -21.0473 1313.06C6.44479 1283.8 38.2046 1266.5 72 1266.5C123.977 1266.5 179.597 1300.92 222.246 1356.62C264.884 1412.31 294.5 1489.2 294.5 1574Z" stroke="#CEE9CB" stroke-opacity="0.8"/>
<path d="M294.5 1574C294.5 1658.8 264.881 1742.08 222.231 1804.15C179.563 1866.25 123.944 1907 72 1907C20.0478 1907 -27.0657 1872.74 -61.2172 1817.17C-95.3637 1761.62 -116.5 1684.84 -116.5 1600C-116.5 1540.79 -106.203 1482.26 -88.3667 1431.16C-71.7292 1383.5 -48.5391 1342.32 -21.0473 1313.06C6.44479 1283.8 38.2046 1266.5 72 1266.5C123.977 1266.5 179.597 1300.92 222.246 1356.62C264.884 1412.31 294.5 1489.2 294.5 1574Z" stroke="#CEE9CB" stroke-opacity="0.8"/>
<path d="M294.5 1574C294.5 1658.8 264.881 1742.08 222.231 1804.15C179.563 1866.25 123.944 1907 72 1907C20.0478 1907 -27.0657 1872.74 -61.2172 1817.17C-95.3637 1761.62 -116.5 1684.84 -116.5 1600C-116.5 1540.79 -106.203 1482.26 -88.3667 1431.16C-71.7292 1383.5 -48.5391 1342.32 -21.0473 1313.06C6.44479 1283.8 38.2046 1266.5 72 1266.5C123.977 1266.5 179.597 1300.92 222.246 1356.62C264.884 1412.31 294.5 1489.2 294.5 1574Z" stroke="#CEE9CB" stroke-opacity="0.8"/>
<path d="M577.5 1791.24C577.5 1813.58 566.462 1835.76 547.384 1856.5C528.309 1877.23 501.228 1896.48 469.236 1912.93C405.251 1945.83 321.704 1967.5 243.5 1967.5C165.285 1967.5 94.4992 1949.27 43.2844 1919.83C-7.94395 1890.38 -39.5 1849.77 -39.5 1805.02C-39.5 1773.78 -24.1235 1742.85 2.59753 1715.8C52.4474 1665.34 141.676 1628.5 243.5 1628.5C321.718 1628.5 405.271 1646.79 469.255 1676.32C501.248 1691.09 528.324 1708.65 547.395 1728.11C566.467 1747.58 577.5 1768.91 577.5 1791.24Z" stroke="#CEE9CB" stroke-opacity="0.8"/>
<path d="M577.5 1791.24C577.5 1813.58 566.462 1835.76 547.384 1856.5C528.309 1877.23 501.228 1896.48 469.236 1912.93C405.251 1945.83 321.704 1967.5 243.5 1967.5C165.285 1967.5 94.4992 1949.27 43.2844 1919.83C-7.94395 1890.38 -39.5 1849.77 -39.5 1805.02C-39.5 1773.78 -24.1235 1742.85 2.59753 1715.8C52.4474 1665.34 141.676 1628.5 243.5 1628.5C321.718 1628.5 405.271 1646.79 469.255 1676.32C501.248 1691.09 528.324 1708.65 547.395 1728.11C566.467 1747.58 577.5 1768.91 577.5 1791.24Z" stroke="#CEE9CB" stroke-opacity="0.8"/>
<path d="M577.5 1791.24C577.5 1813.58 566.462 1835.76 547.384 1856.5C528.309 1877.23 501.228 1896.48 469.236 1912.93C405.251 1945.83 321.704 1967.5 243.5 1967.5C165.285 1967.5 94.4992 1949.27 43.2844 1919.83C-7.94395 1890.38 -39.5 1849.77 -39.5 1805.02C-39.5 1773.78 -24.1235 1742.85 2.59753 1715.8C52.4474 1665.34 141.676 1628.5 243.5 1628.5C321.718 1628.5 405.271 1646.79 469.255 1676.32C501.248 1691.09 528.324 1708.65 547.395 1728.11C566.467 1747.58 577.5 1768.91 577.5 1791.24Z" stroke="#CEE9CB" stroke-opacity="0.8"/>
<path d="M1103.76 2343.46C1085.74 2260.59 1096.98 2172.92 1125.46 2103.2C1153.96 2033.46 1199.65 1981.81 1250.4 1970.78C1301.17 1959.73 1354.49 1983.2 1399.67 2030.24C1444.84 2077.27 1481.82 2147.8 1499.85 2230.7C1512.43 2288.56 1514.81 2347.93 1508.24 2401.66C1502.11 2451.77 1488.2 2496.94 1467.56 2531.37C1446.91 2565.8 1419.56 2589.46 1386.53 2596.64C1335.74 2607.69 1274.08 2585.88 1220.57 2540.51C1167.07 2495.16 1121.78 2426.32 1103.76 2343.46Z" stroke="#CEE9CB" stroke-opacity="0.8"/>
<path d="M1103.76 2343.46C1085.74 2260.59 1096.98 2172.92 1125.46 2103.2C1153.96 2033.46 1199.65 1981.81 1250.4 1970.78C1301.17 1959.73 1354.49 1983.2 1399.67 2030.24C1444.84 2077.27 1481.82 2147.8 1499.85 2230.7C1512.43 2288.56 1514.81 2347.93 1508.24 2401.66C1502.11 2451.77 1488.2 2496.94 1467.56 2531.37C1446.91 2565.8 1419.56 2589.46 1386.53 2596.64C1335.74 2607.69 1274.08 2585.88 1220.57 2540.51C1167.07 2495.16 1121.78 2426.32 1103.76 2343.46Z" stroke="#CEE9CB" stroke-opacity="0.8"/>
<path d="M1103.76 2343.46C1085.74 2260.59 1096.98 2172.92 1125.46 2103.2C1153.96 2033.46 1199.65 1981.81 1250.4 1970.78C1301.17 1959.73 1354.49 1983.2 1399.67 2030.24C1444.84 2077.27 1481.82 2147.8 1499.85 2230.7C1512.43 2288.56 1514.81 2347.93 1508.24 2401.66C1502.11 2451.77 1488.2 2496.94 1467.56 2531.37C1446.91 2565.8 1419.56 2589.46 1386.53 2596.64C1335.74 2607.69 1274.08 2585.88 1220.57 2540.51C1167.07 2495.16 1121.78 2426.32 1103.76 2343.46Z" stroke="#CEE9CB" stroke-opacity="0.8"/>
<path d="M781.056 2191.32C776.309 2169.5 782.38 2145.48 796.615 2121.16C810.848 2096.85 833.219 2072.28 860.984 2049.41C916.514 2003.66 993.547 1964.73 1069.96 1948.11C1146.39 1931.48 1219.44 1934.25 1275.74 1952.13C1332.05 1970.02 1371.52 2003 1381.03 2046.73C1387.67 2077.25 1379.22 2110.74 1358.86 2142.85C1320.87 2202.76 1241.51 2257.72 1142.01 2279.36C1065.58 2295.99 980.05 2295.87 911.252 2280.61C876.853 2272.99 846.662 2261.58 823.89 2246.61C801.117 2231.64 785.801 2213.14 781.056 2191.32Z" stroke="#CEE9CB" stroke-opacity="0.8"/>
<path d="M781.056 2191.32C776.309 2169.5 782.38 2145.48 796.615 2121.16C810.848 2096.85 833.219 2072.28 860.984 2049.41C916.514 2003.66 993.547 1964.73 1069.96 1948.11C1146.39 1931.48 1219.44 1934.25 1275.74 1952.13C1332.05 1970.02 1371.52 2003 1381.03 2046.73C1387.67 2077.25 1379.22 2110.74 1358.86 2142.85C1320.87 2202.76 1241.51 2257.72 1142.01 2279.36C1065.58 2295.99 980.05 2295.87 911.252 2280.61C876.853 2272.99 846.662 2261.58 823.89 2246.61C801.117 2231.64 785.801 2213.14 781.056 2191.32Z" stroke="#CEE9CB" stroke-opacity="0.8"/>
<path d="M781.056 2191.32C776.309 2169.5 782.38 2145.48 796.615 2121.16C810.848 2096.85 833.219 2072.28 860.984 2049.41C916.514 2003.66 993.547 1964.73 1069.96 1948.11C1146.39 1931.48 1219.44 1934.25 1275.74 1952.13C1332.05 1970.02 1371.52 2003 1381.03 2046.73C1387.67 2077.25 1379.22 2110.74 1358.86 2142.85C1320.87 2202.76 1241.51 2257.72 1142.01 2279.36C1065.58 2295.99 980.05 2295.87 911.252 2280.61C876.853 2272.99 846.662 2261.58 823.89 2246.61C801.117 2231.64 785.801 2213.14 781.056 2191.32Z" stroke="#CEE9CB" stroke-opacity="0.8"/>
<g opacity="0.33">
<circle cx="1255.31" cy="512.313" r="14.4217" fill="#6BBC60"/>
<circle cx="1232.88" cy="570" r="14.4217" fill="#6BBC60"/>
<circle cx="1255.31" cy="627.687" r="14.4217" fill="#6BBC60"/>
<circle cx="1313" cy="653.325" r="14.4217" fill="#6BBC60"/>
<circle cx="1268.13" cy="675.759" r="8.01205" fill="#6BBC60"/>
<circle cx="1268.13" cy="467.446" r="8.01205" fill="#6BBC60"/>
<circle cx="1418.76" cy="618.072" r="8.01205" fill="#6BBC60"/>
<circle cx="1210.45" cy="618.072" r="8.01205" fill="#6BBC60"/>
<circle cx="1418.76" cy="525.133" r="8.01205" fill="#6BBC60"/>
<circle cx="1210.45" cy="525.133" r="8.01205" fill="#6BBC60"/>
<circle cx="1220.06" cy="480.265" r="4.80723" fill="#6BBC60"/>
<circle cx="1405.94" cy="480.265" r="4.80723" fill="#6BBC60"/>
<circle cx="1184.81" cy="570" r="4.80723" fill="#6BBC60"/>
<circle cx="1441.19" cy="570" r="4.80723" fill="#6BBC60"/>
<circle cx="1220.06" cy="662.94" r="4.80723" fill="#6BBC60"/>
<circle cx="1313" cy="701.398" r="4.80723" fill="#6BBC60"/>
<circle cx="1313" cy="441.807" r="4.80723" fill="#6BBC60"/>
<circle cx="1405.94" cy="662.94" r="4.80723" fill="#6BBC60"/>
<circle cx="1361.07" cy="675.759" r="8.01205" fill="#6BBC60"/>
<circle cx="1361.07" cy="467.446" r="8.01205" fill="#6BBC60"/>
<circle cx="1313" cy="489.88" r="14.4217" fill="#6BBC60"/>
<circle cx="1370.69" cy="512.313" r="14.4217" fill="#6BBC60"/>
<circle cx="1393.12" cy="570" r="14.4217" fill="#6BBC60"/>
<circle cx="1370.69" cy="627.687" r="14.4217" fill="#6BBC60"/>
</g>
<g opacity="0.33">
<circle cx="99.3123" cy="276.313" r="14.4217" fill="#6BBC60"/>
<circle cx="76.8787" cy="334" r="14.4217" fill="#6BBC60"/>
<circle cx="99.3123" cy="391.687" r="14.4217" fill="#6BBC60"/>
<circle cx="157" cy="417.325" r="14.4217" fill="#6BBC60"/>
<circle cx="112.133" cy="439.759" r="8.01205" fill="#6BBC60"/>
<circle cx="112.133" cy="231.446" r="8.01205" fill="#6BBC60"/>
<circle cx="262.758" cy="382.072" r="8.01205" fill="#6BBC60"/>
<circle cx="54.4456" cy="382.072" r="8.01205" fill="#6BBC60"/>
<circle cx="262.758" cy="289.133" r="8.01205" fill="#6BBC60"/>
<circle cx="54.4456" cy="289.133" r="8.01205" fill="#6BBC60"/>
<circle cx="64.0611" cy="244.265" r="4.80723" fill="#6BBC60"/>
<circle cx="249.94" cy="244.265" r="4.80723" fill="#6BBC60"/>
<circle cx="28.8072" cy="334" r="4.80723" fill="#6BBC60"/>
<circle cx="285.192" cy="334" r="4.80723" fill="#6BBC60"/>
<circle cx="64.0611" cy="426.94" r="4.80723" fill="#6BBC60"/>
<circle cx="157.001" cy="465.398" r="4.80723" fill="#6BBC60"/>
<circle cx="157.001" cy="205.807" r="4.80723" fill="#6BBC60"/>
<circle cx="249.94" cy="426.94" r="4.80723" fill="#6BBC60"/>
<circle cx="205.073" cy="439.759" r="8.01205" fill="#6BBC60"/>
<circle cx="205.073" cy="231.446" r="8.01205" fill="#6BBC60"/>
<circle cx="157" cy="253.88" r="14.4217" fill="#6BBC60"/>
<circle cx="214.687" cy="276.313" r="14.4217" fill="#6BBC60"/>
<circle cx="237.121" cy="334" r="14.4217" fill="#6BBC60"/>
<circle cx="214.687" cy="391.687" r="14.4217" fill="#6BBC60"/>
</g>
<g opacity="0.33">
<circle cx="125.312" cy="1352.86" r="14.4217" fill="#6BBC60"/>
<circle cx="102.879" cy="1410.54" r="14.4217" fill="#6BBC60"/>
<circle cx="125.312" cy="1468.23" r="14.4217" fill="#6BBC60"/>
<circle cx="183" cy="1493.87" r="14.4217" fill="#6BBC60"/>
<circle cx="138.133" cy="1516.3" r="8.01205" fill="#6BBC60"/>
<circle cx="138.133" cy="1307.99" r="8.01205" fill="#6BBC60"/>
<circle cx="288.758" cy="1458.61" r="8.01205" fill="#6BBC60"/>
<circle cx="80.4456" cy="1458.61" r="8.01205" fill="#6BBC60"/>
<circle cx="288.758" cy="1365.67" r="8.01205" fill="#6BBC60"/>
<circle cx="80.4456" cy="1365.67" r="8.01205" fill="#6BBC60"/>
<circle cx="90.0611" cy="1320.81" r="4.80723" fill="#6BBC60"/>
<circle cx="275.94" cy="1320.81" r="4.80723" fill="#6BBC60"/>
<circle cx="54.8072" cy="1410.54" r="4.80723" fill="#6BBC60"/>
<circle cx="311.192" cy="1410.54" r="4.80723" fill="#6BBC60"/>
<circle cx="90.0611" cy="1503.48" r="4.80723" fill="#6BBC60"/>
<circle cx="183.001" cy="1541.94" r="4.80723" fill="#6BBC60"/>
<circle cx="183.001" cy="1282.35" r="4.80723" fill="#6BBC60"/>
<circle cx="275.94" cy="1503.48" r="4.80723" fill="#6BBC60"/>
<circle cx="231.073" cy="1516.3" r="8.01205" fill="#6BBC60"/>
<circle cx="231.073" cy="1307.99" r="8.01205" fill="#6BBC60"/>
<circle cx="183" cy="1330.42" r="14.4217" fill="#6BBC60"/>
<circle cx="240.687" cy="1352.86" r="14.4217" fill="#6BBC60"/>
<circle cx="263.121" cy="1410.54" r="14.4217" fill="#6BBC60"/>
<circle cx="240.687" cy="1468.23" r="14.4217" fill="#6BBC60"/>
</g>
<g opacity="0.33">
<circle cx="1202.31" cy="1892.31" r="14.4217" fill="#6BBC60"/>
<circle cx="1179.88" cy="1950" r="14.4217" fill="#6BBC60"/>
<circle cx="1202.31" cy="2007.69" r="14.4217" fill="#6BBC60"/>
<circle cx="1260" cy="2033.33" r="14.4217" fill="#6BBC60"/>
<circle cx="1215.13" cy="2055.76" r="8.01205" fill="#6BBC60"/>
<circle cx="1215.13" cy="1847.45" r="8.01205" fill="#6BBC60"/>
<circle cx="1365.76" cy="1998.07" r="8.01205" fill="#6BBC60"/>
<circle cx="1157.45" cy="1998.07" r="8.01205" fill="#6BBC60"/>
<circle cx="1365.76" cy="1905.13" r="8.01205" fill="#6BBC60"/>
<circle cx="1157.45" cy="1905.13" r="8.01205" fill="#6BBC60"/>
<circle cx="1167.06" cy="1860.27" r="4.80723" fill="#6BBC60"/>
<circle cx="1352.94" cy="1860.27" r="4.80723" fill="#6BBC60"/>
<circle cx="1131.81" cy="1950" r="4.80723" fill="#6BBC60"/>
<circle cx="1388.19" cy="1950" r="4.80723" fill="#6BBC60"/>
<circle cx="1167.06" cy="2042.94" r="4.80723" fill="#6BBC60"/>
<circle cx="1260" cy="2081.4" r="4.80723" fill="#6BBC60"/>
<circle cx="1260" cy="1821.81" r="4.80723" fill="#6BBC60"/>
<circle cx="1352.94" cy="2042.94" r="4.80723" fill="#6BBC60"/>
<circle cx="1308.07" cy="2055.76" r="8.01205" fill="#6BBC60"/>
<circle cx="1308.07" cy="1847.45" r="8.01205" fill="#6BBC60"/>
<circle cx="1260" cy="1869.88" r="14.4217" fill="#6BBC60"/>
<circle cx="1317.69" cy="1892.31" r="14.4217" fill="#6BBC60"/>
<circle cx="1340.12" cy="1950" r="14.4217" fill="#6BBC60"/>
<circle cx="1317.69" cy="2007.69" r="14.4217" fill="#6BBC60"/>
</g>
<g opacity="0.33">
<circle cx="199.133" cy="2530.9" r="8.01205" fill="#6BBC60"/>
<circle cx="151.061" cy="2543.72" r="4.80723" fill="#6BBC60"/>
<circle cx="336.94" cy="2543.72" r="4.80723" fill="#6BBC60"/>
<circle cx="244.001" cy="2505.27" r="4.80723" fill="#6BBC60"/>
<circle cx="292.073" cy="2530.9" r="8.01205" fill="#6BBC60"/>
<circle cx="244" cy="2553.34" r="14.4217" fill="#6BBC60"/>
</g>
</svg>
