<svg width="32" height="24" viewBox="0 0 32 24" fill="none" xmlns="http://www.w3.org/2000/svg">
<path d="M10.6459 14.901L10.646 14.9011L10.6513 14.8987C12.1308 14.2411 13.9472 13.75 16 13.75C18.0516 13.75 19.8687 14.2406 21.351 14.8864C22.5116 15.4033 23.25 16.5692 23.25 17.84V18.6667C23.25 18.9858 22.9858 19.25 22.6667 19.25H9.33333C9.01421 19.25 8.75 18.9858 8.75 18.6667V17.8533C8.75 16.5658 9.49113 15.4036 10.6459 14.901ZM1.92144 16.1296L1.92145 16.1297L1.92601 16.1277C2.96866 15.6738 4.12036 15.4167 5.33333 15.4167C5.45836 15.4167 5.58219 15.4201 5.70544 15.4265C5.41198 16.1827 5.25 16.9999 5.25 17.8533V19.25H1.33333C1.01421 19.25 0.750001 18.9858 0.750001 18.6667L0.750001 17.9067L0.750001 17.906C0.74967 17.5277 0.860531 17.1576 1.0688 16.8418C1.27708 16.526 1.57357 16.2783 1.92144 16.1296ZM30.0734 16.1274L30.0757 16.1284C30.7911 16.4378 31.25 17.1295 31.25 17.9067V18.6667C31.25 18.9858 30.9858 19.25 30.6667 19.25H26.75V17.8533C26.75 16.9999 26.588 16.1827 26.2946 15.4265C26.4178 15.4201 26.5416 15.4167 26.6667 15.4167H26.6667C27.8391 15.4166 28.9989 15.6585 30.0734 16.1274ZM7.25 10.6667C7.25 11.7191 6.38579 12.5833 5.33333 12.5833C4.28088 12.5833 3.41667 11.7191 3.41667 10.6667C3.41667 9.61421 4.28088 8.75 5.33333 8.75C6.38579 8.75 7.25 9.61421 7.25 10.6667ZM28.5833 10.6667C28.5833 11.7191 27.7191 12.5833 26.6667 12.5833C25.6142 12.5833 24.75 11.7191 24.75 10.6667C24.75 9.61421 25.6142 8.75 26.6667 8.75C27.7191 8.75 28.5833 9.61421 28.5833 10.6667ZM16 4.75C17.7991 4.75 19.25 6.20088 19.25 8C19.25 9.79912 17.7991 11.25 16 11.25C14.2009 11.25 12.75 9.79912 12.75 8C12.75 6.20088 14.2009 4.75 16 4.75Z" stroke="#6BBC60" stroke-width="1.5"/>
</svg>
