<svg width="21" height="22" viewBox="0 0 21 22" fill="none" xmlns="http://www.w3.org/2000/svg">
<path d="M12.1291 1.25301C9.60457 -0.639993 5.98807 1.02051 5.77807 4.16751L5.67307 5.75001H4.62457C4.3262 5.75001 4.04005 5.86853 3.82907 6.07951C3.61809 6.29049 3.49957 6.57664 3.49957 6.87501C3.49957 7.17338 3.61809 7.45952 3.82907 7.6705C4.04005 7.88148 4.3262 8.00001 4.62457 8.00001H5.52157L4.89157 17.4395C4.87228 17.7297 4.78577 18.0114 4.63886 18.2624C4.49195 18.5133 4.28868 18.7267 4.04512 18.8856C3.80155 19.0445 3.52437 19.1445 3.23548 19.1778C2.94658 19.2111 2.6539 19.1768 2.38057 19.0775L2.01007 18.9425C1.87119 18.892 1.72373 18.8693 1.57609 18.8758C1.42845 18.8822 1.28354 18.9177 1.14961 18.9802C1.01569 19.0427 0.895376 19.1309 0.795552 19.2399C0.695728 19.3488 0.618343 19.4764 0.567817 19.6153C0.517291 19.7541 0.494613 19.9016 0.501077 20.0492C0.507542 20.1969 0.543022 20.3418 0.605493 20.4757C0.667963 20.6096 0.756201 20.7299 0.865167 20.8298C0.974133 20.9296 1.10169 21.007 1.24057 21.0575L1.61257 21.1925C2.21387 21.411 2.85776 21.4866 3.49332 21.4134C4.12888 21.3401 4.73869 21.1201 5.27456 20.7706C5.81043 20.4211 6.25767 19.9518 6.58092 19.3997C6.90416 18.8476 7.09457 18.2279 7.13707 17.5895L7.77757 8.00001H9.87457C10.1729 8.00001 10.4591 7.88148 10.6701 7.6705C10.881 7.45952 10.9996 7.17338 10.9996 6.87501C10.9996 6.57664 10.881 6.29049 10.6701 6.07951C10.4591 5.86853 10.1729 5.75001 9.87457 5.75001H7.92757L8.02207 4.31751C8.04276 4.00752 8.14678 3.70887 8.32316 3.4531C8.49953 3.19734 8.7417 2.99396 9.0241 2.86444C9.30649 2.73492 9.61862 2.68407 9.92753 2.71726C10.2364 2.75045 10.5306 2.86645 10.7791 3.05301L11.0746 3.27501C11.1928 3.36365 11.3272 3.42815 11.4704 3.46481C11.6135 3.50148 11.7624 3.50959 11.9087 3.4887C12.0549 3.46781 12.1956 3.41831 12.3227 3.34304C12.4499 3.26777 12.5609 3.1682 12.6496 3.05001C12.7382 2.93182 12.8027 2.79733 12.8394 2.65421C12.876 2.5111 12.8842 2.36216 12.8633 2.21591C12.8424 2.06966 12.7929 1.92895 12.7176 1.80183C12.6423 1.6747 12.5428 1.56365 12.4246 1.47501L12.1291 1.25301Z" fill="white"/>
<path d="M13.4533 10.4975C13.2751 10.2082 13.0338 9.96302 12.7473 9.78032C12.4609 9.59763 12.1368 9.48218 11.7993 9.44263C11.4619 9.40309 11.1199 9.44047 10.7989 9.55198C10.478 9.6635 10.1865 9.84624 9.94628 10.0865L9.45428 10.5785C9.25556 10.7918 9.14738 11.0738 9.15252 11.3653C9.15766 11.6567 9.27573 11.9348 9.48185 12.1409C9.68797 12.3471 9.96605 12.4651 10.2575 12.4703C10.5489 12.4754 10.831 12.3672 11.0443 12.1685L11.5378 11.6765L13.3258 14.582L9.82928 18.08C9.63056 18.2933 9.52238 18.5753 9.52752 18.8668C9.53266 19.1582 9.65073 19.4363 9.85685 19.6424C10.063 19.8486 10.341 19.9666 10.6325 19.9718C10.9239 19.9769 11.206 19.8687 11.4193 19.67L14.5378 16.553L16.0453 19.0025C16.2234 19.2918 16.4648 19.537 16.7512 19.7197C17.0377 19.9024 17.3618 20.0178 17.6992 20.0574C18.0367 20.0969 18.3787 20.0595 18.6996 19.948C19.0206 19.8365 19.3121 19.6538 19.5523 19.4135L20.0443 18.9215C20.243 18.7082 20.3512 18.4262 20.346 18.1347C20.3409 17.8433 20.2228 17.5652 20.0167 17.3591C19.8106 17.153 19.5325 17.0349 19.2411 17.0297C18.9496 17.0246 18.6675 17.1328 18.4543 17.3315L17.9608 17.8235L16.1728 14.918L19.6693 11.42C19.868 11.2067 19.9762 10.9247 19.971 10.6332C19.9659 10.3418 19.8478 10.0637 19.6417 9.85757C19.4356 9.65145 19.1575 9.53338 18.8661 9.52824C18.5746 9.5231 18.2925 9.63128 18.0793 9.83L14.9593 12.9455L13.4533 10.4975Z" fill="white"/>
</svg>
