<svg width="32" height="24" viewBox="0 0 32 24" fill="none" xmlns="http://www.w3.org/2000/svg">
<path d="M14.7997 18.18V16.86C14.2717 16.82 13.7717 16.724 13.2997 16.572C12.8357 16.412 12.4317 16.192 12.0877 15.912L12.5557 14.7C12.9317 14.98 13.3437 15.196 13.7917 15.348C14.2397 15.5 14.7317 15.576 15.2677 15.576C15.8517 15.576 16.2797 15.472 16.5517 15.264C16.8237 15.056 16.9597 14.796 16.9597 14.484C16.9597 14.204 16.8677 13.98 16.6837 13.812C16.4997 13.644 16.1717 13.508 15.6997 13.404L14.4277 13.128C13.7077 12.968 13.1637 12.704 12.7957 12.336C12.4357 11.96 12.2557 11.464 12.2557 10.848C12.2557 10.176 12.4837 9.61199 12.9397 9.15599C13.4037 8.69199 14.0237 8.41199 14.7997 8.31599V6.95999H15.9997V8.30399C16.4157 8.34399 16.8197 8.44399 17.2117 8.60399C17.6037 8.76399 17.9357 8.97999 18.2077 9.25199L17.7517 10.404C17.1437 9.84399 16.3677 9.56399 15.4237 9.56399C14.9277 9.56399 14.5277 9.67999 14.2237 9.91199C13.9277 10.136 13.7797 10.432 13.7797 10.8C13.7797 11.072 13.8717 11.292 14.0557 11.46C14.2397 11.628 14.5357 11.756 14.9437 11.844L16.2157 12.12C16.9837 12.288 17.5517 12.556 17.9197 12.924C18.2957 13.284 18.4837 13.764 18.4837 14.364C18.4837 15.036 18.2517 15.588 17.7877 16.02C17.3317 16.444 16.7357 16.712 15.9997 16.824V18.18H14.7997Z" fill="#6BBC60"/>
<path d="M26.29 12C26.29 18.2424 21.4395 23.25 15.52 23.25C9.60045 23.25 4.75 18.2424 4.75 12C4.75 5.75765 9.60045 0.75 15.52 0.75C21.4395 0.75 26.29 5.75765 26.29 12Z" stroke="#6BBC60" stroke-width="1.5"/>
</svg>
