<svg width="32" height="24" viewBox="0 0 32 24" fill="none" xmlns="http://www.w3.org/2000/svg">
<path d="M12.8505 0C12.6249 0 12.4086 0.0847699 12.2491 0.235661C12.0896 0.386553 12 0.591205 12 0.804598V19.1954C12 19.4088 12.0896 19.6134 12.2491 19.7643C12.4086 19.9152 12.6249 20 12.8505 20C13.076 20 13.2923 19.9152 13.4518 19.7643C13.6113 19.6134 13.7009 19.4088 13.7009 19.1954V11.8046C13.7009 11.2523 14.1486 10.8046 14.7009 10.8046H18.9252H24.1495C24.3751 10.8046 24.5914 10.7198 24.7509 10.5689C24.9104 10.418 25 10.2134 25 10V0.804598C25 0.591205 24.9104 0.386553 24.7509 0.235661C24.5914 0.0847699 24.3751 0 24.1495 0H12.972C12.9713 1.85672e-06 12.9707 4.41441e-06 12.97 7.67302e-06C12.9302 0.000207952 12.8903 0.000205353 12.8505 0ZM13.8224 2.60919C13.8224 2.05691 14.2701 1.6092 14.8224 1.6092H22.2991C22.8513 1.6092 23.2991 2.05691 23.2991 2.6092V8.1954C23.2991 8.74769 22.8514 9.1954 22.2991 9.1954H14.8224C14.2701 9.1954 13.8224 8.74769 13.8224 8.1954V2.60919Z" fill="#6BBC60"/>
<path d="M10.2009 18C7.729 18.3873 6 19.3133 6 20.6761C6 22.5116 8.8889 24 13 24C17.1111 24 20 22.5119 20 20.6761C20 19.3131 18.271 18.3873 15.7993 18.0003L15.4568 18.6463C17.3199 18.9325 18.6 19.5346 18.6 20.2329C18.6 21.212 16.0928 22.0057 13 22.0057C9.90717 22.0057 7.4 21.212 7.4 20.2329C7.39977 19.537 8.67167 18.9356 10.5404 18.6481C10.4275 18.432 10.3141 18.2164 10.2009 18Z" fill="#6BBC60"/>
</svg>
