<svg aria-hidden="true" style="position: absolute; width: 0; height: 0; overflow: hidden;" version="1.1" xmlns="http://www.w3.org/2000/svg" xmlns:xlink="http://www.w3.org/1999/xlink">
<defs>
<symbol id="icon-phone" viewBox="0 0 30 32">
<path d="M21.175 20.633c-0.325-0.295-0.752-0.453-1.191-0.439s-0.855 0.197-1.161 0.512l-2.541 1.81c-0.974-0.186-2.932-0.796-4.947-2.806-2.015-2.017-2.626-3.98-2.807-4.947l1.824-2.528c0.315-0.306 0.499-0.722 0.513-1.161s-0.144-0.866-0.44-1.191l-3.914-8.388c-0.296-0.326-0.707-0.523-1.146-0.551s-0.872 0.117-1.206 0.404l-3.669 3.146c-0.292 0.293-0.467 0.684-0.49 1.097-0.025 0.423 0.778 9.158 8.541 16.925 6.773 6.771 13.971 8.543 16.307 8.543 0.342 0 0.551-0.010 0.607-0.014 0.413-0.023 0.804-0.198 1.096-0.492l3.145-3.67c0.287-0.334 0.432-0.766 0.404-1.205s-0.224-0.85-0.55-1.146l-8.376-3.898z"></path>
</symbol>
</defs>
</svg>
